<?xml version="1.0" encoding="utf-8"?>
<!-- Generator: Adobe Illustrator 17.1.0, SVG Export Plug-In . SVG Version: 6.00 Build 0)  -->
<!DOCTYPE svg PUBLIC "-//W3C//DTD SVG 1.1//EN" "http://www.w3.org/Graphics/SVG/1.1/DTD/svg11.dtd">
<svg version="1.1" id="Layer_1" xmlns="http://www.w3.org/2000/svg" xmlns:xlink="http://www.w3.org/1999/xlink" x="0px" y="0px"
	 viewBox="-24.7 358.3 644.7 140.1" enable-background="new -24.7 358.3 644.7 140.1" xml:space="preserve">
<rect x="0" y="385.5" display="none" fill="none" width="595.3" height="68"/>
<g id="Backup" display="none">
	
		<text transform="matrix(1 0 0 1 14.4238 445.9447)" display="inline" fill="#8FEEEE" font-family="'Durmal-Bold'" font-size="86.2725">A</text>
	
		<text transform="matrix(1 0 0 1 60.5791 445.9457)" display="inline" fill="#8FEEEE" font-family="'Durmal-Bold'" font-size="60.3907">tomic</text>
	
		<text transform="matrix(1 0 0 1 197.3618 445.9447)" display="inline" fill="#8FEEEE" font-family="'Durmal-Bold'" font-size="86.2725"> T</text>
	
		<text transform="matrix(1 0 0 1 263.0136 445.9457)" display="inline" fill="#8FEEEE" font-family="'Durmal-Bold'" font-size="60.3907">ic</text>
	
		<text transform="matrix(1 0 0 1 302.9922 445.9447)" display="inline" fill="#8FEEEE" font-family="'Durmal-Bold'" font-size="86.2725">-T</text>
	
		<text transform="matrix(1 0 0 1 382.2763 445.9457)" display="inline" fill="#8FEEEE" font-family="'Durmal-Bold'" font-size="60.3907">ac</text>
	
		<text transform="matrix(1 0 0 1 443.6924 445.9447)" display="inline" fill="#8FEEEE" font-family="'Durmal-Bold'" font-size="86.2725">-T</text>
	
		<text transform="matrix(1 0 0 1 522.9766 445.9457)" display="inline" fill="#8FEEEE" font-family="'Durmal-Bold'" font-size="60.3907">oe</text>
</g>
<g>
	
		<image display="none" overflow="visible" opacity="0.81" enable-background="new    " width="695" height="151" xlink:href="BD93F84277C8F7B8.png"  transform="matrix(0.9277 0 0 0.9277 -24.7055 358.3427)">
	</image>
	<g>
		<g>
			<g>
				<path fill="#8FEEEE" d="M50,458.1c-0.5,0-0.8-0.3-0.9-0.7l-4.9-19.6H30.9c-0.6,2-1.1,4.2-1.7,6.3c-1.2,4.5-2.4,9-3.5,13.3
					c-0.1,0.4-0.5,0.7-0.9,0.7H16c-0.3,0-0.6-0.1-0.7-0.4c-0.2-0.2-0.3-0.6-0.2-0.8l15.4-57.8c0.1-0.4,0.5-0.6,0.9-0.6H44
					c0.5,0,0.8,0.3,0.9,0.7l14.7,57.8c0.1,0.3,0,0.6-0.2,0.8c-0.2,0.3-0.5,0.4-0.7,0.4L50,458.1L50,458.1z M42.8,431.1l-5-18.8
					l-5.1,18.8H42.8z"/>
				<path fill="#FFFFFF" d="M44.1,399.2L58.8,457h-8.9l-5.1-20.3H30.2c-1.8,6.6-3.7,13.7-5.4,20.3h-8.7l15.4-57.8H44.1 M31.4,432.1
					H44l-6.2-23.4L31.4,432.1 M44.1,397.4H31.6c-0.8,0-1.6,0.6-1.8,1.4l-15.5,57.8c-0.2,0.6,0,1.1,0.3,1.6c0.4,0.5,0.9,0.7,1.5,0.7
					h8.7c0.8,0,1.6-0.6,1.8-1.4c1.1-4.3,2.3-8.9,3.5-13.3c0.5-1.9,1-3.7,1.5-5.6h11.8l4.7,18.8c0.2,0.8,0.9,1.4,1.8,1.4h8.9
					c0.6,0,1.1-0.3,1.5-0.7c0.4-0.5,0.5-1,0.4-1.6l-14.7-57.8C45.7,398,45,397.4,44.1,397.4L44.1,397.4z M33.9,430.2l3.9-14.4
					l3.8,14.4H33.9L33.9,430.2z"/>
			</g>
			<g>
				<path fill="#8FEEEE" d="M71.4,458.1c-0.6,0-0.9-0.4-0.9-0.9v-36.3h-9.3c-0.6,0-0.9-0.4-0.9-0.9v-3.3c0-0.6,0.4-0.9,0.9-0.9h26.6
					c0.6,0,0.9,0.4,0.9,0.9v3.2c0,0.6-0.4,0.9-0.9,0.9h-9.5V457c0,0.6-0.4,0.9-0.9,0.9L71.4,458.1L71.4,458.1z"/>
				<path fill="#FFFFFF" d="M87.8,416.6v3.2H77.5V457h-6v-37.1H61.2v-3.3H87.8 M87.8,414.7H61.2c-1,0-1.9,0.8-1.9,1.9v3.2
					c0,1,0.8,1.9,1.9,1.9h8.3V457c0,1,0.8,1.9,1.9,1.9h6c1,0,1.9-0.8,1.9-1.9v-35.3h8.4c1,0,1.9-0.8,1.9-1.9v-3.3
					C89.7,415.6,88.9,414.7,87.8,414.7L87.8,414.7z"/>
			</g>
			<g>
				<path fill="#8FEEEE" d="M98.5,458.1c-3.9,0-8.4-0.8-8.6-7.2v-28c0-6.3,5.1-7.1,8.9-7.1h9.1c3.7,0,8.5,0.7,8.7,7.1v27.9
					c0,7-6.8,7.1-9,7.2l0,0C107.6,458.1,98.5,458.1,98.5,458.1z M99.2,420.9c-1.1,0-1.3,0.4-1.4,2.9v26.8c0,1.9,0.2,2.3,1.9,2.3h7.6
					c1.1,0,1.3-0.5,1.4-3v-26.7c0-1.9-0.3-2.3-1.9-2.3H99.2z"/>
				<path fill="#FFFFFF" d="M107.9,416.6c4.5,0,7.7,1.1,7.8,6.3v27.9c0,4.9-3.6,6.1-8.1,6.3h-9.1c-4.4,0-7.5-1.1-7.7-6.3v-28
					c0-4.9,3.5-6.1,8.1-6.2H107.9 M99.7,453.8h7.7c2.1,0,2.2-1.8,2.3-3.9v-26.7c0-2.1-0.5-3.2-2.9-3.2h-7.7c-2.1,0-2.2,1.7-2.3,3.8
					v26.9C96.8,452.7,97.2,453.8,99.7,453.8 M107.9,414.7h-9.1c-6.6,0.1-9.9,2.8-9.9,8.1v27.9c0,0,0,0,0,0.1
					c0.3,8.2,7.3,8.2,9.6,8.2h9.1c0,0,0,0,0.1,0c6.6-0.2,9.9-2.9,9.9-8.2v-27.9C117.3,414.7,110.3,414.7,107.9,414.7L107.9,414.7z
					 M98.9,421.8c0.1,0,0.1,0,0.3,0h7.7c0.6,0,0.8,0.2,0.8,0.2s0.1,0.3,0.1,1.3v26.8c0,0.6-0.1,1.7-0.2,2c-0.1,0-0.1,0-0.3,0h-7.6
					c-0.6,0-0.8-0.1-0.9-0.1c0-0.1-0.1-0.4-0.1-1.3v-27C98.7,423.1,98.8,422.2,98.9,421.8L98.9,421.8z"/>
			</g>
			<g>
				<path fill="#8FEEEE" d="M148.9,458.1c-0.6,0-0.9-0.4-0.9-0.9V436l-6.3,21.4c-0.1,0.4-0.5,0.6-0.9,0.6h-6c-0.4,0-0.7-0.3-0.9-0.6
					l-6.3-21.4v21.2c0,0.6-0.4,0.9-0.9,0.9h-6c-0.6,0-0.9-0.4-0.9-0.9v-40.5c0-0.6,0.4-0.9,0.9-0.9h8.2c0.4,0,0.7,0.3,0.9,0.6
					l8.2,27.4l8.2-27.4c0.1-0.4,0.5-0.6,0.9-0.6h8.2c0.6,0,0.9,0.4,0.9,0.9V457c0,0.6-0.4,0.9-0.9,0.9L148.9,458.1L148.9,458.1z"/>
				<path fill="#FFFFFF" d="M155,416.6V457h-6v-27.5l-8.2,27.6h-6l-8.2-27.6v27.6h-6v-40.5h8.2l9.1,30.3l9.1-30.3L155,416.6
					 M155,414.7h-8.2c-0.8,0-1.6,0.6-1.8,1.3l-7.2,24.4l-7.2-24.4c-0.3-0.7-0.9-1.3-1.8-1.3h-8.2c-1,0-1.9,0.8-1.9,1.9V457
					c0,1,0.8,1.9,1.9,1.9h6c1,0,1.9-0.8,1.9-1.9v-14.7l4.5,15.2c0.3,0.7,0.9,1.3,1.8,1.3h6c0.8,0,1.6-0.6,1.8-1.3l4.5-15.2v14.7
					c0,1,0.8,1.9,1.9,1.9h6c1,0,1.9-0.8,1.9-1.9v-40.5C156.9,415.6,156,414.7,155,414.7L155,414.7z"/>
			</g>
			<g>
				<path fill="#8FEEEE" d="M159.8,458.1c-0.6,0-0.9-0.4-0.9-0.9v-40.5c0-0.6,0.4-0.9,0.9-0.9h6c0.6,0,0.9,0.4,0.9,0.9V457
					c0,0.6-0.4,0.9-0.9,0.9L159.8,458.1L159.8,458.1z"/>
				<path fill="#FFFFFF" d="M165.9,416.6V457h-6v-40.4H165.9 M165.9,414.7h-6c-1,0-1.9,0.8-1.9,1.9V457c0,1,0.8,1.9,1.9,1.9h6
					c1,0,1.9-0.8,1.9-1.9v-40.4C167.7,415.6,166.9,414.7,165.9,414.7L165.9,414.7z"/>
			</g>
			<g>
				<path fill="#8FEEEE" d="M178.5,458.1c-6.7,0-8.4-3.5-8.6-6.4c0-0.2,0-0.3,0-0.3c0-0.2,0-0.3,0-0.5v-28.1c0-7.1,6.8-7.1,8.9-7.1
					h16.4c0.6,0,0.9,0.4,0.9,0.9v3.2c0,0.6-0.4,0.9-0.9,0.9H179c-1,0-1.3,0.4-1.4,2.9v26.8c0,1.9,0.2,2.2,1.9,2.3h16
					c0.6,0,0.9,0.4,0.9,0.9v3.2c0,0.6-0.4,0.9-0.9,0.9L178.5,458.1L178.5,458.1z"/>
				<path fill="#FFFFFF" d="M195.1,416.6v3.2h-16c-2.1,0-2.2,1.7-2.3,3.8v26.9c0,2.1,0.4,3.2,2.9,3.2h16v3.2h-17.1
					c-3.6,0-7.3-1.1-7.7-5.6c0-0.3-0.1-0.5-0.1-0.7v-27.9c0-4.9,3.5-6.1,8.1-6.2H195.1 M195.1,414.7h-16.4c-6.6,0.1-9.9,2.8-9.9,8.1
					v27.9c0,0.3,0,0.5,0,0.6c0,0.1,0,0.1,0,0.2s0,0.1,0,0.2c0.2,2.7,1.8,7.2,9.6,7.2h17.1c1,0,1.9-0.8,1.9-1.9v-3.2
					c0-1-0.8-1.9-1.9-1.9h-16c-0.6,0-0.8-0.1-0.9-0.2c0-0.1-0.1-0.4-0.1-1.2v-26.8c0-0.5,0.1-1.6,0.2-1.9c0,0,0.1,0,0.2,0h16.1
					c1,0,1.9-0.8,1.9-1.9v-3.3C196.9,415.6,196.1,414.7,195.1,414.7L195.1,414.7z"/>
			</g>
			<g>
				<path fill="#8FEEEE" d="M238.8,458.1c-0.6,0-0.9-0.4-0.9-0.9v-52.2h-13.7c-0.6,0-0.9-0.4-0.9-0.9v-4.6c0-0.6,0.4-0.9,0.9-0.9h38
					c0.6,0,0.9,0.4,0.9,0.9v4.6c0,0.6-0.4,0.9-0.9,0.9h-13.8v52.2c0,0.6-0.4,0.9-0.9,0.9H238.8z"/>
				<path fill="#FFFFFF" d="M262.2,399.2v4.6h-14.7V457h-8.6V404h-14.7v-4.6L262.2,399.2 M262.2,397.4h-38c-1,0-1.9,0.8-1.9,1.9v4.6
					c0,1,0.8,1.9,1.9,1.9h12.8V457c0,1,0.8,1.9,1.9,1.9h8.6c1,0,1.9-0.8,1.9-1.9v-51.2h12.9c1,0,1.9-0.8,1.9-1.9v-4.6
					C264,398.2,263.2,397.4,262.2,397.4L262.2,397.4z"/>
			</g>
			<g>
				<path fill="#8FEEEE" d="M265.4,458.1c-0.6,0-0.9-0.4-0.9-0.9v-40.5c0-0.6,0.4-0.9,0.9-0.9h6c0.6,0,0.9,0.4,0.9,0.9V457
					c0,0.6-0.4,0.9-0.9,0.9L265.4,458.1L265.4,458.1z"/>
				<path fill="#FFFFFF" d="M271.4,416.6V457h-6v-40.4H271.4 M271.4,414.7h-6c-1,0-1.9,0.8-1.9,1.9V457c0,1,0.8,1.9,1.9,1.9h6
					c1,0,1.9-0.8,1.9-1.9v-40.4C273.3,415.6,272.5,414.7,271.4,414.7L271.4,414.7z"/>
			</g>
			<g>
				<path fill="#8FEEEE" d="M284,458.1c-6.7,0-8.4-3.5-8.6-6.4c0-0.2,0-0.3,0-0.3c0-0.2,0-0.3,0-0.5v-28.1c0-7.1,6.8-7.1,8.9-7.1
					h16.4c0.6,0,0.9,0.4,0.9,0.9v3.2c0,0.6-0.4,0.9-0.9,0.9h-16.1c-1,0-1.3,0.4-1.4,2.9v26.8c0,1.9,0.2,2.2,1.9,2.3h16
					c0.6,0,0.9,0.4,0.9,0.9v3.2c0,0.6-0.4,0.9-0.9,0.9L284,458.1L284,458.1z"/>
				<path fill="#FFFFFF" d="M300.7,416.6v3.2h-16.1c-2.1,0-2.2,1.7-2.3,3.8v26.9c0,2.1,0.4,3.2,2.9,3.2h16v3.2H284
					c-3.6,0-7.3-1.1-7.7-5.6c0-0.3-0.1-0.5-0.1-0.7v-27.9c0-4.9,3.5-6.1,8.1-6.2H300.7 M300.7,414.7h-16.4c-6.6,0.1-9.9,2.8-9.9,8.1
					v27.9c0,0.3,0,0.5,0,0.6c0,0.1,0,0.1,0,0.2s0,0.1,0,0.2c0.2,2.7,1.8,7.2,9.6,7.2H301c1,0,1.9-0.8,1.9-1.9v-3.2
					c0-1-0.8-1.9-1.9-1.9h-16c-0.6,0-0.8-0.1-0.9-0.2c0-0.1-0.1-0.4-0.1-1.2v-26.8c0-0.5,0.1-1.6,0.2-1.9c0,0,0.1,0,0.2,0h16.1
					c1,0,1.9-0.8,1.9-1.9v-3.3C302.6,415.6,301.8,414.7,300.7,414.7L300.7,414.7z"/>
			</g>
			<g>
				<path fill="#8FEEEE" d="M308.2,436c-0.6,0-0.9-0.4-0.9-0.9v-5c0-0.6,0.4-0.9,0.9-0.9h29.1c0.6,0,0.9,0.4,0.9,0.9v5
					c0,0.6-0.4,0.9-0.9,0.9H308.2z"/>
				<path fill="#FFFFFF" d="M337.3,430v5h-29.1v-5H337.3 M337.3,428.2h-29.1c-1,0-1.9,0.8-1.9,1.9v5c0,1,0.8,1.9,1.9,1.9h29.1
					c1,0,1.9-0.8,1.9-1.9v-5C339.2,429,338.3,428.2,337.3,428.2L337.3,428.2z"/>
			</g>
			<g>
				<path fill="#8FEEEE" d="M358.1,458.1c-0.6,0-0.9-0.4-0.9-0.9v-52.2h-13.7c-0.6,0-0.9-0.4-0.9-0.9v-4.6c0-0.6,0.4-0.9,0.9-0.9h38
					c0.6,0,0.9,0.4,0.9,0.9v4.6c0,0.6-0.4,0.9-0.9,0.9h-13.8v52.2c0,0.6-0.4,0.9-0.9,0.9H358.1z"/>
				<path fill="#FFFFFF" d="M381.5,399.2v4.6h-14.7V457h-8.6V404h-14.7v-4.6L381.5,399.2 M381.5,397.4h-38c-1,0-1.9,0.8-1.9,1.9v4.6
					c0,1,0.8,1.9,1.9,1.9h12.8V457c0,1,0.8,1.9,1.9,1.9h8.6c1,0,1.9-0.8,1.9-1.9v-51.2h12.9c1,0,1.9-0.8,1.9-1.9v-4.6
					C383.3,398.2,382.5,397.4,381.5,397.4L381.5,397.4z"/>
			</g>
			<g>
				<path fill="#8FEEEE" d="M407.2,458.1c-0.5,0-0.8-0.3-0.9-0.7l-3.3-13.5h-8.8c-0.4,1.4-0.7,2.8-1.1,4.2c-0.8,3.1-1.7,6.3-2.4,9.3
					c-0.1,0.4-0.5,0.7-0.9,0.7h-6.1c-0.3,0-0.6-0.1-0.7-0.4c-0.2-0.2-0.3-0.6-0.2-0.8l10.9-40.4c0.1-0.4,0.5-0.6,0.9-0.6h8.7
					c0.5,0,0.8,0.3,0.9,0.7l10.3,40.4c0.1,0.3,0,0.6-0.2,0.8c-0.2,0.3-0.5,0.4-0.7,0.4C413.4,458.1,407.2,458.1,407.2,458.1z
					 M401.7,438.7l-3.1-11.9l-3.2,11.9H401.7z"/>
				<path fill="#FFFFFF" d="M403.1,416.6l10.3,40.4h-6.2l-3.5-14.2h-10.3c-1.2,4.5-2.6,9.6-3.7,14.2h-6.1l10.8-40.4H403.1
					 M394.2,439.6h8.7l-4.4-16.3L394.2,439.6 M403.1,414.7h-8.8c-0.8,0-1.6,0.6-1.8,1.4l-10.9,40.4c-0.2,0.6,0,1.1,0.3,1.6
					c0.4,0.5,0.9,0.7,1.5,0.7h6.1c0.8,0,1.6-0.6,1.8-1.4c0.7-3,1.6-6.2,2.4-9.3c0.3-1.2,0.6-2.4,0.9-3.5h7.4l3.2,12.8
					c0.2,0.8,0.9,1.4,1.8,1.4h6.2c0.6,0,1.1-0.3,1.5-0.7c0.4-0.5,0.5-1,0.4-1.6l-10.3-40.4C404.6,415.4,403.9,414.7,403.1,414.7
					L403.1,414.7z M396.6,437.7l1.9-7.3l1.9,7.3H396.6L396.6,437.7z"/>
			</g>
			<g>
				<path fill="#8FEEEE" d="M424.8,458.1c-6.7,0-8.4-3.5-8.6-6.4c0-0.2,0-0.3,0-0.3c0-0.2,0-0.3,0-0.5v-28.1c0-7.1,6.8-7.1,8.9-7.1
					h16.4c0.6,0,0.9,0.4,0.9,0.9v3.2c0,0.6-0.4,0.9-0.9,0.9h-16.1c-1,0-1.3,0.4-1.4,2.9v26.8c0,1.9,0.2,2.2,1.9,2.3h16
					c0.6,0,0.9,0.4,0.9,0.9v3.2c0,0.6-0.4,0.9-0.9,0.9L424.8,458.1L424.8,458.1z"/>
				<path fill="#FFFFFF" d="M441.5,416.6v3.2h-16.1c-2.1,0-2.2,1.7-2.3,3.8v26.9c0,2.1,0.4,3.2,2.9,3.2h16v3.2h-17.1
					c-3.6,0-7.3-1.1-7.7-5.6c0-0.3-0.1-0.5-0.1-0.7v-27.9c0-4.9,3.5-6.1,8.1-6.2H441.5 M441.5,414.7h-16.4c-6.6,0.1-9.9,2.8-9.9,8.1
					v27.9c0,0.3,0,0.5,0,0.6c0,0.1,0,0.1,0,0.2s0,0.1,0,0.2c0.2,2.7,1.8,7.2,9.6,7.2h17.1c1,0,1.9-0.8,1.9-1.9v-3.2
					c0-1-0.8-1.9-1.9-1.9h-16c-0.6,0-0.8-0.1-0.9-0.2c0-0.1-0.1-0.4-0.1-1.2v-26.8c0-0.5,0.1-1.6,0.2-1.9c0,0,0.1,0,0.2,0h16.1
					c1,0,1.9-0.8,1.9-1.9v-3.3C443.3,415.6,442.5,414.7,441.5,414.7L441.5,414.7z"/>
			</g>
			<g>
				<path fill="#8FEEEE" d="M448.9,436c-0.6,0-0.9-0.4-0.9-0.9v-5c0-0.6,0.4-0.9,0.9-0.9H478c0.6,0,0.9,0.4,0.9,0.9v5
					c0,0.6-0.4,0.9-0.9,0.9H448.9z"/>
				<path fill="#FFFFFF" d="M478,430v5h-29.1v-5H478 M478,428.2h-29.1c-1,0-1.9,0.8-1.9,1.9v5c0,1,0.8,1.9,1.9,1.9H478
					c1,0,1.9-0.8,1.9-1.9v-5C479.9,429,479,428.2,478,428.2L478,428.2z"/>
			</g>
			<g>
				<path fill="#8FEEEE" d="M498.7,458.1c-0.6,0-0.9-0.4-0.9-0.9v-52.2h-13.7c-0.6,0-0.9-0.4-0.9-0.9v-4.6c0-0.6,0.4-0.9,0.9-0.9h38
					c0.6,0,0.9,0.4,0.9,0.9v4.6c0,0.6-0.4,0.9-0.9,0.9h-13.8v52.2c0,0.6-0.4,0.9-0.9,0.9H498.7z"/>
				<path fill="#FFFFFF" d="M522.1,399.2v4.6h-14.7V457h-8.6V404h-14.7v-4.6L522.1,399.2 M522.1,397.4h-38c-1,0-1.9,0.8-1.9,1.9v4.6
					c0,1,0.8,1.9,1.9,1.9h12.8V457c0,1,0.8,1.9,1.9,1.9h8.6c1,0,1.9-0.8,1.9-1.9v-51.2h12.9c1,0,1.9-0.8,1.9-1.9v-4.6
					C523.9,398.2,523.1,397.4,522.1,397.4L522.1,397.4z"/>
			</g>
			<g>
				<path fill="#8FEEEE" d="M533.1,458.1c-3.9,0-8.4-0.8-8.6-7.2v-27.9c0-6.3,5.1-7.1,8.9-7.1h9.1c3.7,0,8.5,0.7,8.7,7.1v27.9
					c0,7-6.8,7.1-9,7.2l0,0H533.1z M533.7,420.9c-1.1,0-1.3,0.4-1.4,2.9v26.8c0,1.9,0.2,2.3,1.9,2.3h7.6c1.1,0,1.3-0.5,1.4-3v-26.7
					c0-1.9-0.3-2.3-1.9-2.3H533.7z"/>
				<path fill="#FFFFFF" d="M542.5,416.6c4.5,0,7.7,1.1,7.8,6.3v27.9c0,4.9-3.6,6.1-8.1,6.3h-9.1c-4.4,0-7.5-1.1-7.7-6.3v-28
					c0-4.9,3.5-6.1,8.1-6.2H542.5 M534.2,453.8h7.7c2.1,0,2.2-1.8,2.3-3.9v-26.7c0-2.1-0.5-3.2-2.9-3.2h-7.7c-2.1,0-2.2,1.7-2.3,3.8
					v26.9C531.5,452.7,531.8,453.8,534.2,453.8 M542.5,414.7h-9.1c-6.6,0.1-9.9,2.8-9.9,8.1v27.9c0,0,0,0,0,0.1
					c0.3,8.2,7.3,8.2,9.6,8.2h9.1c0,0,0,0,0.1,0c6.6-0.2,9.9-2.9,9.9-8.2v-27.9C552,414.7,544.8,414.7,542.5,414.7L542.5,414.7z
					 M533.5,421.8c0.1,0,0.1,0,0.3,0h7.7c0.6,0,0.8,0.2,0.8,0.2s0.1,0.3,0.1,1.3v26.8c0,0.6-0.1,1.7-0.2,2c-0.1,0-0.1,0-0.3,0h-7.6
					c-0.6,0-0.8-0.1-0.9-0.1c0-0.1-0.1-0.4-0.1-1.3v-27C533.3,423.1,533.3,422.2,533.5,421.8L533.5,421.8z"/>
			</g>
			<g>
				<path fill="#8FEEEE" d="M555.1,458.1c-0.6,0-0.9-0.4-0.9-0.9v-40.5c0-0.6,0.4-0.9,0.9-0.9H579c0.6,0,0.9,0.4,0.9,0.9v3.3
					c0,0.6-0.4,0.9-0.9,0.9h-17v12.8h12.1c0.6,0,0.9,0.4,0.9,0.9v3.3c0,0.6-0.4,0.9-0.9,0.9h-12.1v14h17c0.6,0,0.9,0.4,0.9,0.9v3.3
					c0,0.6-0.4,0.9-0.9,0.9H555.1L555.1,458.1z"/>
				<path fill="#FFFFFF" d="M579,416.6v3.3h-17.9v14.7h13v3.3h-13v15.9H579v3.3h-23.9v-40.5H579 M579,414.7h-23.9
					c-1,0-1.9,0.8-1.9,1.9V457c0,1,0.8,1.9,1.9,1.9H579c1,0,1.9-0.8,1.9-1.9v-3.3c0-1-0.8-1.9-1.9-1.9h-16v-12.2h11.1
					c1,0,1.9-0.8,1.9-1.9v-3.3c0-1-0.8-1.9-1.9-1.9H563v-10.9h16c1,0,1.9-0.8,1.9-1.9v-3.3C580.9,415.6,580.1,414.7,579,414.7
					L579,414.7z"/>
			</g>
		</g>
	</g>
</g>
</svg>
