<?xml version="1.0" encoding="utf-8"?>
<!-- Generator: Adobe Illustrator 17.1.0, SVG Export Plug-In . SVG Version: 6.00 Build 0)  -->
<!DOCTYPE svg PUBLIC "-//W3C//DTD SVG 1.1//EN" "http://www.w3.org/Graphics/SVG/1.1/DTD/svg11.dtd">
<svg version="1.1" id="Layer_1" xmlns="http://www.w3.org/2000/svg" xmlns:xlink="http://www.w3.org/1999/xlink" x="0px" y="0px"
	 viewBox="9.9 13.2 8.5 1.7" enable-background="new 9.9 13.2 8.5 1.7" xml:space="preserve">
<path fill="#FFFFFF" d="M9.9,14.4v-0.3h0.2c0,0.1,0.1,0.1,0.1,0.1c0,0,0.1,0,0.1-0.1c0-0.1-0.4-0.1-0.4-0.3c0-0.2,0.2-0.2,0.3-0.2
	c0.1,0,0.2,0,0.2,0.1l0-0.1h0.2v0.3h-0.2c0-0.1-0.1-0.1-0.1-0.1c0,0-0.1,0-0.1,0.1c0,0.1,0.4,0.1,0.4,0.4c0,0.2-0.2,0.2-0.3,0.2
	c-0.1,0-0.2-0.1-0.2-0.1l0,0.1L9.9,14.4L9.9,14.4z"/>
<path fill="#FFFFFF" d="M10.6,13.6H11v0.1h-0.1v0.5H11v0.2h-0.4v-0.2h0.1v-0.5h-0.1V13.6z"/>
<path fill="#FFFFFF" d="M11,13.6h0.4v0.1h-0.1v0.5h0.1v-0.1h0.2v0.3H11v-0.2h0.1v-0.5H11L11,13.6L11,13.6z"/>
<path fill="#FFFFFF" d="M12,14.2c0,0,0-0.1,0-0.1l0.1-0.2H12v-0.1h0.3v0.1h-0.1L12,14.4h-0.2l-0.3-0.6h-0.1v-0.1h0.4v0.1h-0.1
	l0.1,0.3C11.9,14.1,12,14.1,12,14.2C12,14.2,12,14.2,12,14.2z"/>
<path fill="#FFFFFF" d="M12.3,13.6H13v0.2h-0.2v-0.1h-0.2v0.2h0.2v0.2h-0.2v0.2h0.2v-0.1H13v0.3h-0.7v-0.2h0.1v-0.5h-0.1
	C12.3,13.8,12.3,13.6,12.3,13.6z"/>
<path fill="#FFFFFF" d="M13.1,13.6h0.4c0.3,0,0.3,0.1,0.3,0.2c0,0.1-0.1,0.2-0.2,0.2c0.1,0,0.1,0.1,0.1,0.2c0,0,0,0.1,0,0.1
	c0,0,0,0,0,0v0h0.1v0.1c0,0.1,0,0.2-0.2,0.2c-0.1,0-0.2-0.1-0.2-0.2c0-0.1,0-0.1-0.1-0.1v0.2h0.1v0.1h-0.4v-0.1h0.1v-0.5h-0.1
	L13.1,13.6L13.1,13.6z M13.4,13.8V14h0.1c0.1,0,0.1,0,0.1-0.1C13.5,13.8,13.5,13.8,13.4,13.8L13.4,13.8z"/>
<g>
	<path fill="#FFFFFF" d="M16,13.7h0.7v0.2h-0.2v-0.1h-0.2V14h0.2v0.2h-0.2v0.1h0.1v0.2H16v-0.2h0.1v-0.5H16V13.7z"/>
	<path fill="#FFFFFF" d="M16.7,14c0-0.2,0.2-0.4,0.4-0.4c0.3,0,0.4,0.2,0.4,0.4s-0.1,0.4-0.4,0.4C16.9,14.5,16.7,14.3,16.7,14z
		 M17.2,14.1c0-0.1,0-0.2-0.1-0.2c-0.1,0-0.1,0.1-0.1,0.2c0,0.1,0.1,0.2,0.1,0.2C17.2,14.3,17.2,14.2,17.2,14.1z"/>
	<path fill="#FFFFFF" d="M17.9,14.4h-0.4v-0.1h0.1l0.2-0.2l-0.2-0.3h-0.1v-0.1H18v0.1h-0.1L18,14l0.1-0.2H18v-0.1h0.4v0.1h-0.1
		L18.1,14l0.2,0.3h0.1v0.1L17.9,14.4l0.1-0.1H18l-0.1-0.1l0,0l-0.1,0.1h0.1L17.9,14.4L17.9,14.4z"/>
</g>
<path fill="#FFFFFF" d="M14.7,14.9c0-0.1,0.1-0.3,0.1-0.3c0,0,0.1-0.2,0.1-0.3v-0.1h0c0,0,0-0.1-0.1-0.1c0,0-0.1-0.1-0.1-0.1
	c0,0-0.2,0-0.2,0c0,0,0,0,0,0c0,0,0,0-0.1,0c0,0,0,0,0-0.1c0,0,0.2,0,0.3-0.1s0.1-0.1,0.2-0.1v-0.1c0,0,0,0,0.1,0c0,0,0,0,0-0.1
	c0,0,0.2,0,0.2,0.3c0,0,0.2,0.1,0.1,0.6c0,0,0,0,0,0.1c0,0,0.1,0.2,0.1,0.2c0,0,0.1,0.1,0.1,0.2c0.2-0.2,0.3-0.4,0.3-0.6
	c0-0.5-0.4-0.9-0.9-0.9S14,13.6,14,14.1C14,14.5,14.3,14.8,14.7,14.9C14.6,14.9,14.7,14.9,14.7,14.9z"/>
</svg>
