<?xml version="1.0" encoding="utf-8"?>
<!-- Generator: Adobe Illustrator 17.0.0, SVG Export Plug-In . SVG Version: 6.00 Build 0)  -->
<!DOCTYPE svg PUBLIC "-//W3C//DTD SVG 1.1//EN" "http://www.w3.org/Graphics/SVG/1.1/DTD/svg11.dtd">
<svg version="1.1" id="Layer_1" xmlns="http://www.w3.org/2000/svg" xmlns:xlink="http://www.w3.org/1999/xlink" x="0px" y="0px"
	 width="641.736px" height="93.432px" viewBox="0 0 641.736 93.432" enable-background="new 0 0 641.736 93.432"
	 xml:space="preserve">
<path fill="#FFFFFF" d="M38.5,76.778V52.642h17.81c0,8.053,8.052,9.384,12.075,9.582c3.351,0,8.138-0.769,8.138-4.794
	c0-7.464-36.779-4.304-36.779-28.729c0-14.182,13.412-20.6,22.793-20.6c8.051,0,16.191,2.591,20.015,9.777l0.959-8.055h16.483V33.87
	H82.656c0-7.083-5.556-11.11-12.26-11.11c-2.776,0-6.604,1.724-6.604,5.072c0,9.868,37.923,7.563,37.923,30.076
	c0,14.942-13.98,20.297-25.384,20.297c-9.674,0-16.372-4.502-20.02-8.812l-1.058,7.379H38.5V76.778z"/>
<path fill="#FFFFFF" d="M104.068,9.827h31.796v12.652h-5.93v41.566h5.93v12.732h-31.796V64.045h6.039V22.479h-6.039
	C104.068,22.479,104.068,9.827,104.068,9.827z"/>
<path fill="#FFFFFF" d="M138.237,9.827h30.266v12.652h-5.071v41.566h12.354V51.881h16.091v24.897h-53.639V64.045h5.269V22.479
	h-5.269L138.237,9.827L138.237,9.827z"/>
<path fill="#FFFFFF" d="M215.419,55.327c0.194-2.678,1.535-7.372,3.449-12.166l8.713-20.876h-4.979l-0.095-12.456h27.208v12.456
	h-4.695l-22.992,54.495h-17.624L179.03,22.288h-5.272V9.827h35.34l-0.092,12.46h-5.177l8.142,21.451
	c1.533,4.693,2.777,8.911,2.971,11.591h0.473v-0.004L215.419,55.327L215.419,55.327z"/>
<path fill="#FFFFFF" d="M248.711,9.827h57.76v21.172h-16.571V22.48h-15.334v13.211h18.195v12.739h-18.195v15.618H289.9v-8.912
	h16.571v21.641h-57.76V64.045h6.037l-0.184-41.806h-5.882L248.711,9.827L248.711,9.827z"/>
<path fill="#FFFFFF" d="M308.825,9.827h31.126c22.221,0,26.531,8.817,26.531,19.732c0,7.473-5.945,12.741-13.886,13.893
	c6.604,0.953,12.543,6.707,12.543,13.598c0,4.12,0.582,6.512,2.309,6.512c1.424,0,2.197-1.142,2.197-3.06v-3.168h6.413v5.281
	c0,7.939-3.35,15.318-13.979,15.318c-12.547,0-18.581-6.601-18.581-17.814c0-8.711-1.059-10.82-9.577-10.82v14.844h5.841v12.637
	h-30.935V64.14h5.36V22.386h-5.36L308.825,9.827C308.826,9.827,308.825,9.827,308.825,9.827z M333.913,22.287v16.28h4.308
	c5.56,0,9.205-2.678,9.205-7.76c0-5.654-3.165-8.52-8.726-8.52C338.701,22.287,333.913,22.287,333.913,22.287z"/>
<g>
	<path fill="#FFFFFF" d="M399.85,11.102h57.273v21.169h-16.954v-8.536h-14.458v16.673h18.186v12.73h-18.186v12.165h9.765v12.748
		h-35.624V65.303h5.939V23.735h-5.939L399.85,11.102L399.85,11.102z"/>
	<path fill="#FFFFFF" d="M457.56,44.238c0-20.689,13.794-34.956,33.623-34.956c23.465,0,34.374,14.082,34.374,35.624
		c0,21.641-12.064,34.868-33.712,34.868C471.838,79.773,457.56,68.185,457.56,44.238z M501.627,44.909
		c0-11.583-3.164-20.88-10.539-20.88c-5.841-0.09-9.866,8.337-9.866,20.212c0,12.547,4.504,20.498,10.63,20.498
		C497.889,64.737,501.627,56.787,501.627,44.909z"/>
	<path fill="#FFFFFF" d="M558.757,78.05h-31.792v-12.35h8.33l14.073-18.296l-17.331-23.853h-4.98v-12.45h37.925v12.447h-5.557
		l9.392,12.741l9.775-12.741h-8.436V11.102h31.808v12.447h-8.148l-14.465,18.485L596.598,65.6h5.551v12.451H563.93V65.602h5.46
		l-7.281-9.774l-2.009-2.685l-9.861,12.56h8.517L558.757,78.05L558.757,78.05z"/>
</g>
</svg>
